/* XPM */
static char * bar_xpm[] = {
"12 12 7 1",
" 	c None",
".	c #808080",
"+	c #585858",
"@	c #A0A0A0",
"#	c #C3C3C3",
"$	c #FFFFFF",
"%	c #DCDCDC",
"            ",
"            ",
"            ",
"            ",
" .++++++++@ ",
" +########$ ",
" +%%%%%%%%$ ",
" @$$$$$$$$$ ",
"            ",
"            ",
"            ",
"            "};
