/* XPM */
static char * base_down_xpm[] = {
"18 18 7 1",
" 	c None",
".	c #A0A0A0",
"+	c #FFFFFF",
"@	c #585858",
"#	c #808080",
"$	c #DCDCDC",
"%	c #C3C3C3",
"@@@@@@@@@@@@@@@@#%",
"@###############%+",
"@#..............$+",
"@#..............$+",
"@#..............$+",
"@#..............$+",
"@#..............$+",
"@#..............$+",
"@#..............$+",
"@#..............$+",
"@#..............$+",
"@#..............$+",
"@#..............$+",
"@#..............$+",
"@#..............$+",
"@#..............$+",
"#%$$$$$$$$$$$$$$$+",
"%+++++++++++++++++"};
