/* XPM */
static char * base_down_xpm[] = {
"18 18 8 1",
" 	c None",
".	c #555555",
"+	c #777777",
"@	c #BBBBBB",
"#	c #969696",
"$	c #FFFFFF",
"%	c #A8A8A8",
"&	c #DDDDDD",
"................+@",
".###############@$",
".#%%%%%%%%%%%%%%&$",
".#%%%%%%%%%%%%%%&$",
".#%%%%%%%%%%%%%%&$",
".#%%%%%%%%%%%%%%&$",
".#%%%%%%%%%%%%%%&$",
".#%%%%%%%%%%%%%%&$",
".#%%%%%%%%%%%%%%&$",
".#%%%%%%%%%%%%%%&$",
".#%%%%%%%%%%%%%%&$",
".#%%%%%%%%%%%%%%&$",
".#%%%%%%%%%%%%%%&$",
".#%%%%%%%%%%%%%%&$",
".#%%%%%%%%%%%%%%&$",
".#%%%%%%%%%%%%%%&$",
"+@&&&&&&&&&&&&&&&$",
"@$$$$$$$$$$$$$$$$$"};
