/* XPM */
static char * base_up_xpm[] = {
"18 18 7 1",
" 	c None",
".	c #FFFFFF",
"+	c #BBBBBB",
"@	c #DDDDDD",
"#	c #777777",
"$	c #999999",
"%	c #555555",
".................+",
".@@@@@@@@@@@@@@@+#",
".@++++++++++++++$%",
".@++++++++++++++$%",
".@++++++++++++++$%",
".@++++++++++++++$%",
".@++++++++++++++$%",
".@++++++++++++++$%",
".@++++++++++++++$%",
".@++++++++++++++$%",
".@++++++++++++++$%",
".@++++++++++++++$%",
".@++++++++++++++$%",
".@++++++++++++++$%",
".@++++++++++++++$%",
".@++++++++++++++$%",
".+$$$$$$$$$$$$$$$%",
"+#%%%%%%%%%%%%%%%%"};
