/* XPM */
static char * button_unmax_active_xpm[] = {
"12 12 4 1",
" 	c None",
".	c #A0A0A0",
"+	c #FFFFFF",
"@	c #585858",
".++++++++++.",
"+@@@@@@@@@@+",
"+@@@@@@@@@@+",
"+@@@@@@@@@@+",
"+@@@@@@@@@@+",
"+@@@@@@@@@@+",
"+@@@@@@@@@@+",
"+@@@@@@@@@@+",
"+@@@@@@@@@@+",
"+@@@@@@@@@@+",
"+@@@@@@@@@@+",
".++++++++++."};
