/* XPM */
static char * button_close_active_xpm[] = {
"12 12 4 1",
" 	c None",
".	c #585858",
"+	c #FFFFFF",
"@	c #303030",
".++.    .++.",
"+..+.  .+..+",
"+...+@@+...+",
".+...++...+.",
" .+......+. ",
"  @+....+@  ",
"  @+....+@  ",
" .+......+. ",
".+...++...+.",
"+...+@@+...+",
"+..+.  .+..+",
".++.    .++."};
