/* XPM */
static char * button_base_down_active_xpm[] = {
"18 18 8 1",
" 	c None",
".	c #000000",
"+	c #303030",
"@	c #585858",
"#	c #C3C3C3",
"$	c #808080",
"%	c #DCDCDC",
"&	c #FFFFFF",
".+++++++++++++++@#",
"+@@@@@@@@@@@@@@@$%",
"+@..............$%",
"+@..............$%",
"+@..............$%",
"+@..............$%",
"+@..............$%",
"+@..............$%",
"+@..............$%",
"+@..............$%",
"+@..............$%",
"+@..............$%",
"+@..............$%",
"+@..............$%",
"+@..............$%",
"+@..............$%",
"@$$$$$$$$$$$$$$$#%",
"#%%%%%%%%%%%%%%%%&"};
