/* XPM */
static char * button_iconify_xpm[] = {
"12 12 4 1",
" 	c None",
".	c #808080",
"+	c #585858",
"@	c #DCDCDC",
"            ",
"            ",
"            ",
"            ",
" .++++++++. ",
" +@@@@@@@@+ ",
" +@@@@@@@@+ ",
" .++++++++. ",
"            ",
"            ",
"            ",
"            "};
