/* XPM */
static char * button_close_xpm[] = {
"12 12 3 1",
" 	c None",
".	c #585858",
"+	c #DCDCDC",
" ..      .. ",
".++.    .++.",
".+++.  .+++.",
" .+++..+++. ",
"  .++++++.  ",
"   .++++.   ",
"   .++++.   ",
"  .++++++.  ",
" .+++..+++. ",
".+++.  .+++.",
".++.    .++.",
" ..      .. "};
