/* XPM */
static char * button_base_up_active_xpm[] = {
"18 18 8 1",
" 	c None",
".	c #FFFFFF",
"+	c #DCDCDC",
"@	c #C3C3C3",
"#	c #808080",
"$	c #585858",
"%	c #000000",
"&	c #303030",
".++++++++++++++++@",
"+@###############$",
"+#%%%%%%%%%%%%%%$&",
"+#%%%%%%%%%%%%%%$&",
"+#%%%%%%%%%%%%%%$&",
"+#%%%%%%%%%%%%%%$&",
"+#%%%%%%%%%%%%%%$&",
"+#%%%%%%%%%%%%%%$&",
"+#%%%%%%%%%%%%%%$&",
"+#%%%%%%%%%%%%%%$&",
"+#%%%%%%%%%%%%%%$&",
"+#%%%%%%%%%%%%%%$&",
"+#%%%%%%%%%%%%%%$&",
"+#%%%%%%%%%%%%%%$&",
"+#%%%%%%%%%%%%%%$&",
"+#%%%%%%%%%%%%%%$&",
"+#$$$$$$$$$$$$$$$&",
"@$&&&&&&&&&&&&&&&%"};
