/* XPM */
static char * button_lower_active_xpm[] = {
"12 12 5 1",
" 	c None",
".	c #A0A0A0",
"+	c #FFFFFF",
"@	c #808080",
"#	c #585858",
".++++++.    ",
"+@@@@@@+    ",
"+@@@@@@+    ",
"+@@@@@@.    ",
"+@@@.++++++.",
"+@@@+##@###+",
"+@@@+##.###+",
".++.+@..###+",
"    +######+",
"    +######+",
"    +######+",
"    .++++++."};
