/* XPM */
static char * close_xpm[] = {
"12 12 7 1",
" 	c None",
".	c #DCDCDC",
"+	c #585858",
"@	c #A0A0A0",
"#	c #FFFFFF",
"$	c #808080",
"%	c #C3C3C3",
"            ",
" +$.     +@ ",
".#+$.   +@#.",
" .#+$. +@#. ",
"  .#+$+@#.  ",
"   ..@@#.   ",
"    +@@+.   ",
"   +@%#@+   ",
"  +@%..#@+  ",
" +@%.  .#@+ ",
" @%.    .#@ ",
"  .      .  "};
