/* XPM */
static char * close_xpm[] = {
"12 12 7 1",
" 	c None",
".	c #BBBBBB",
"+	c #DDDDDD",
"@	c #555555",
"#	c #777777",
"$	c #999999",
"%	c #FFFFFF",
"            ",
"+@#+     @$+",
"+%@#+   @$++",
" +%@#+ @$++ ",
"  +%@$#$%+  ",
"   ++$$%+   ",
"    @$$@+   ",
"   @$+%$@   ",
"  @$+++%$@  ",
" @$++  +%$@ ",
" $++    +%$ ",
" ++      ++ "};
