/* XPM */
static char * lower_xpm[] = {
"12 12 7 1",
" 	c None",
".	c #555555",
"+	c #777777",
"@	c #BBBBBB",
"#	c #FFFFFF",
"$	c #DDDDDD",
"%	c #999999",
".......+    ",
".######@$   ",
".#     +#   ",
".# .......+ ",
".# .######@$",
".# .#     +#",
".# .#     .#",
".@+.#     .#",
"%$#.#     .#",
"   .#     .#",
"   .@+.....#",
"   %$#######"};
