/* XPM */
static char * lower_xpm[] = {
"12 12 7 1",
" 	c None",
".	c #585858",
"+	c #FFFFFF",
"@	c #808080",
"#	c #C3C3C3",
"$	c #DCDCDC",
"%	c #A0A0A0",
"@......@    ",
".++++++.    ",
".++++++.    ",
".++++++@    ",
".+++@......@",
".+++.$$#$$$.",
".+++.$$%$$$.",
"@..@.#%%$$$.",
"    .$$$$$$.",
"    .$$$$$$.",
"    .$$$$$$.",
"    @......@"};
