/* XPM */
static char * max_xpm[] = {
"12 12 7 1",
" 	c None",
".	c #BBBBBB",
"+	c #555555",
"@	c #777777",
"#	c #FFFFFF",
"$	c #DDDDDD",
"%	c #999999",
"            ",
"            ",
"  ++++++@.  ",
"  +#####.$  ",
"  +#    @#  ",
"  +#    +#  ",
"  +#    +#  ",
"  +#    +#  ",
"  +.@++++#  ",
"  %$######  ",
"            ",
"            "};
