/* XPM */
static char * resize_xpm[] = {
"12 12 7 1",
" 	c None",
".	c #FFFFFF",
"+	c #BBBBBB",
"@	c #DDDDDD",
"#	c #777777",
"$	c #999999",
"%	c #555555",
"%%%%%%%%%%%+",
"%....+....+@",
"%.   #.   #.",
"%.   %.   %.",
"%.   %.   %.",
"%+#%%%.   %.",
"%......   %.",
"%.        %.",
"%.        %.",
"%.        %.",
"%+#%%%%%%%%.",
"$@.........."};
