/* XPM */
static char * resize_bar_left_xpm[] = {
"2 7 5 1",
" 	c None",
".	c #FFFFFF",
"+	c #DCDCDC",
"@	c #C3C3C3",
"#	c #808080",
"..",
".+",
".+",
".+",
".+",
".@",
"@#"};
