/* XPM */
static char * resize_xpm[] = {
"12 12 6 1",
" 	c None",
".	c #DCDCDC",
"+	c #585858",
"@	c #FFFFFF",
"#	c #808080",
"$	c #C3C3C3",
"#++++++++++#",
"+.@@.#$...$+",
"+@@@@+.....+",
"+@@@@+.....+",
"+.@@.+.....+",
"+#++++.....+",
"+$.........+",
"+..........+",
"+..........+",
"+..........+",
"+$........$+",
"#++++++++++#"};
