/* XPM */
static char * title_active_left_xpm[] = {
"2 18 6 1",
" 	c None",
".	c #FFFFFF",
"+	c #DCDCDC",
"@	c #C3C3C3",
"#	c #808080",
"$	c #585858",
".+",
"+@",
"+#",
"+#",
"+#",
"+#",
"+#",
"+#",
"+#",
"+#",
"+#",
"+#",
"+#",
"+#",
"+#",
"+#",
"+#",
"@$"};
