/* XPM */
static char * title_inactive_xpm[] = {
"128 18 6 1",
" 	c None",
".	c #FFFFFF",
"+	c #DDDDDD",
"@	c #BBBBBB",
"#	c #999999",
"$	c #555555",
"................................................................................................................................",
"++++++++++++++++++++++++++++++++++++++++++++++++++++++++++++++++++++++++++++++++++++++++++++++++++++++++++++++++++++++++++++++++",
"@+@@@.@.@+++@@@..@+@@+@+@+@.+@..@@@@@@@@@+@+++@@@@.@@@++++@@@@..@+@.@@@@@@@@@@@@+.+++++.@@.@@.@.@..@.@.@@@++++++++++@@@@@@@+++++",
".@@@@@.@++++@@.+@.@++@+@+@@@@@+.@@@@@@@+@@++++@@@.@@@+@@++@@@.@@.@+@.@@@@@..@@.@@@+++++@@@@@@@.@@@@.@.@.@@+++++@+@@@+@@@@@++++@+",
".@.@@@+@@++@@@@@@@@@@++@@+@.@..+@@@@@@@@+@++++@@+@@@@@@@+@+@@@@.@+@.@@@@@@@@@@@@@+@+++@+@+@@@@@@@.@.@.@@.@@++++++++@+@+@+@++++@+",
"@@@@@@@@@@@@@@.@.@.+@@@+@@+@.+@@@++@@@@+++@+@+@@@@@@@+@+@+@+@@+@.@.@@@@@@@@.@@@+.@+++++@+@+@.@.@+@@@@@+@+@.++@@@++@+@++@+@@++@@+",
"@@@@+++@+@+@@@.@@@@.@.@+@@@@@@@+++++@@@+@+++@@@@@@@@@@@@@@@+@@@.@+@.+@@@@@++@+@+@@@@++@+++@@@@@@@@@@@++@@@@+@@@@+++@++@+@@@@++@+",
"+@@@+++@@@@@@@@@+@@@@@@.@@@@@+@+@+++@@+@++@@@.@@@@@@@+@@@@@@+@@@@@+.@@@@@@@+++++@.@@@++@@+@@.@@@@+++++++@@@+@+@.@++@+@++@@@++@@@",
"+@@@+@@+@+@+@@.@@@@@+@@@@@+@@@@@++++@@@+++@+@@@@@+@@@@@.@@@+@@+@@@.@+@@@@@+@+++@+@@@+@@@@@.@@@+@@@@@@++@@@@@@@@@@++@@+@+@@@@++@+",
"@@@@@+@++@@@.@@++@@@@@@+@@++++@+@++++.+@@@@@@@@@@@.@@@@@+@@+@+@+++.+@@+@++@+@+@+@++@@+@+@@@@@@@@@@++@+@+@+@@+@@+@+@.++@@@@.@@@@@",
"@@@@@@++@+@@@+@@@@@@@@@@@@++.+@@@@+@+++@@@@@@@@@@@+@@+@+@@+@@@++@++@@@@@@@+.@@@@@@.@+@+@+@@@+@+@@+@@@+@.+@@+@@@@@@@@@@@@+@@@@@@@",
"@@@@@@@@@@+@@@@@+@@@@@+@@++@+++@@@@+++@@+@+@+@+@+++@@@@@@+@@+@+@++@@@+@@@@@@@@@@+@@@@@@@@+.@@+@@@+@+@+@+@+@@@@@+@+@@@@@@++@@@@@@",
"@@@+@@@@@@@@++@@@@@+@+@@+@++@@@@@@@@+@@@+@++@++++@++@+@+@@@+@++@++@@@+@@@+@@@+@@@+@+@@+@+@@@@@@+@@+@@++@+++@@@+++@@@@@@+@@@@@++@",
"@@@@@@@@@@+@@@@@@@+@@@@+@@@@@@@+@+@@+@@++@+@+@@+++@++@@@@+@@++++@+++@@+@+@@@@@@+@@@@+@@+@@@@@@+@@@+@+@++@@++@+@+@+@+@@+@@+@+@@@+",
"@@@@+@@@+@+@+@@++@+@+@@@+@@+@@@+@+@+@++@++@++@++@@++@@@@@@@+++@++@+@@@@@+@+@@@@@@+@@@+++@+@@@@@@@@+@@+@@@++++@+@@+++++@+@+@+@@++",
"@@@@@+@+@+++@@+@++@@+@+@@@+@+@+++@@@++@+@@+@+@+@++@++@@@@@@@@@+@+++@@@@+@@@++++@@@@++@+@+@@@@@@@@@@@@++@+++++@@+@@+@+@+@@+@@@@@+",
"################################################################################################################################",
"$$$$$$$$$$$$$$$$$$$$$$$$$$$$$$$$$$$$$$$$$$$$$$$$$$$$$$$$$$$$$$$$$$$$$$$$$$$$$$$$$$$$$$$$$$$$$$$$$$$$$$$$$$$$$$$$$$$$$$$$$$$$$$$$"};
