/* XPM */
static char * title_active_right_xpm[] = {
"2 18 8 1",
" 	c None",
".	c #FFFFFF",
"+	c #DCDCDC",
"@	c #C3C3C3",
"#	c #808080",
"$	c #A0A0A0",
"%	c #585858",
"&	c #303030",
".+",
"@#",
"$%",
"$%",
"$%",
"$%",
"$%",
"$%",
"$%",
"$%",
"$%",
"$%",
"$%",
"$%",
"$%",
"$%",
"$%",
"%&"};
