/* XPM */
static char * title_active_xpm[] = {
"128 18 6 1",
" 	c None",
".	c #DCDCDC",
"+	c #A0A0A0",
"@	c #808080",
"#	c #008080",
"$	c #585858",
"................................................................................................................................",
"++++++++++++++++++++++++++++++++++++++++++++++++++++++++++++++++++++++++++++++++++++++++++++++++++++++++++++++++++++++++++++++++",
"@@+#@#######@@####@#@########@##@@#@@@+@#######@@##@#@@########+#####@@#@@#@##+#+###@##+#@#@@#@#@##@@#@@#########@#####@##@@@##@",
"@@###@###@#####@@##########################@#####+##############+##########+#####@################++++###@######@#+####+@#####@#",
"@#+###@############@#@#@############################+####@#@#+###@#########+################++###+##+###+######@@#@####@####@#@@",
"@@###@#############+######+#######@###@#@@#@###############@@#@######@#########++###@###@#@@###+########+########@@###@@@#@#@@@#",
"@@####@############@###########@###@@####@@###+######@+##@########++##+#@#######+#####@################@#@##@###@@+#########@@@#",
"@#@###@########++###@@##############@+##@@#################@##@+@#++#+####+@@#+#@#@#@@####@#+#+####+##@#########@@###########@@#",
"@###@@#@####+##########+##@@#####@@@##@@@@###########@#####@###@###########@@@@@+@####@#@#########@#@#@####@#####@@+@@##@###@#@#",
"#####@@#@@#@##+#+###@##+#@#@@#@#@##@@#@@#########@#####@##@@@##@@@+#@#######@@####@#@########@##@@#@@@+@#######@@##@#@@########+",
"+##########+#####@################++++###@######@#+####+@#####@#@@###@###@#####@@##########################@#####+##############",
"#@#########+################++###+##+###+######@@#@####@####@#@@@#+###@############@#@#@############################+####@#@#+##",
"#####@#########++###@###@#@@###+########+########@@###@@@#@#@@@#@@###@#############+######+#######@###@#@@#@###############@@#@#",
"##++##+#@#######+#####@################@#@##@###@@+#########@@@#@@####@############@###########@###@@####@@###+######@+##@######",
"@#++#+####+@@#+#@#@#@@####@#+#+####+##@#########@@###########@@#@#@###@########++###@@##############@+##@@#################@##@+",
"###########@@@@@+@####@#@#########@#@#@####@#####@@+@@##@###@#@#@###@@#@####+##########+##@@#####@@@##@@@@###########@#####@###@",
"@@@@@@@@@@@@@@@@@@@@@@@@@@@@@@@@@@@@@@@@@@@@@@@@@@@@@@@@@@@@@@@@@@@@@@@@@@@@@@@@@@@@@@@@@@@@@@@@@@@@@@@@@@@@@@@@@@@@@@@@@@@@@@@@",
"$$$$$$$$$$$$$$$$$$$$$$$$$$$$$$$$$$$$$$$$$$$$$$$$$$$$$$$$$$$$$$$$$$$$$$$$$$$$$$$$$$$$$$$$$$$$$$$$$$$$$$$$$$$$$$$$$$$$$$$$$$$$$$$$"};
