/* XPM */
static char * title_inactive_xpm[] = {
"128 18 6 1",
" 	c None",
".	c #FFFFFF",
"+	c #DCDCDC",
"@	c #A0A0A0",
"#	c #C3C3C3",
"$	c #585858",
"................................................................................................................................",
"++++++++++++++++++++++++++++++++++++++++++++++++++++++++++++++++++++++++++++++++++++++++++++++++++++++++++++++++++++++++++++++++",
"++@#+#######++####+#+########+##++#+++@+#######++##+#++########@#####++#++#+##@#@###+##@#+#++#+#+##++#++#########+#####+##+++##+",
"++###+###+#####++##########################+#####@##############@##########@#####+################@@@@###+######+#@####@+#####+#",
"+#@###+############+#+#+############################@####+#+#@###+#########@################@@###@##@###@######++#+####+####+#++",
"++###+#############@######@#######+###+#++#+###############++#+######+#########@@###+###+#++###@########@########++###+++#+#+++#",
"++####+############+###########+###++####++###@######+@##+########@@##@#+#######@#####+################+#+##+###++@#########+++#",
"+#+###+########@@###++##############+@##++#################+##+@+#@@#@####@++#@#+#+#++####+#@#@####@##+#########++###########++#",
"+###++#+####@##########@##++#####+++##++++###########+#####+###+###########+++++@+####+#+#########+#+#+####+#####++@++##+###+#+#",
"#####++#++#+##@#@###+##@#+#++#+#+##++#++#########+#####+##+++##+++@#+#######++####+#+########+##++#+++@+#######++##+#++########@",
"@##########@#####+################@@@@###+######+#@####@+#####+#++###+###+#####++##########################+#####@##############",
"#+#########@################@@###@##@###@######++#+####+####+#+++#@###+############+#+#+############################@####+#+#@##",
"#####+#########@@###+###+#++###@########@########++###+++#+#+++#++###+#############@######@#######+###+#++#+###############++#+#",
"##@@##@#+#######@#####+################+#+##+###++@#########+++#++####+############+###########+###++####++###@######+@##+######",
"+#@@#@####@++#@#+#+#++####+#@#@####@##+#########++###########++#+#+###+########@@###++##############+@##++#################+##+@",
"###########+++++@+####+#+#########+#+#+####+#####++@++##+###+#+#+###++#+####@##########@##++#####+++##++++###########+#####+###+",
"@@@@@@@@@@@@@@@@@@@@@@@@@@@@@@@@@@@@@@@@@@@@@@@@@@@@@@@@@@@@@@@@@@@@@@@@@@@@@@@@@@@@@@@@@@@@@@@@@@@@@@@@@@@@@@@@@@@@@@@@@@@@@@@@",
"$$$$$$$$$$$$$$$$$$$$$$$$$$$$$$$$$$$$$$$$$$$$$$$$$$$$$$$$$$$$$$$$$$$$$$$$$$$$$$$$$$$$$$$$$$$$$$$$$$$$$$$$$$$$$$$$$$$$$$$$$$$$$$$$"};
