/* XPM */
static char * title_inactive_right_xpm[] = {
"2 18 6 1",
" 	c None",
".	c #FFFFFF",
"+	c #BBBBBB",
"@	c #777777",
"#	c #999999",
"$	c #555555",
".+",
"+@",
"#$",
"#$",
"#$",
"#$",
"#$",
"#$",
"#$",
"#$",
"#$",
"#$",
"#$",
"#$",
"#$",
"#$",
"#$",
"$$"};
