/* XPM */
static char * title_inactive_xpm[] = {
"128 18 6 1",
" 	c None",
".	c #C3C3C3",
"+	c #DCDCDC",
"@	c #FFFFFF",
"#	c #585858",
"$	c #A0A0A0",
"@@@@@@@@@@@@@@@@@@@@@@@@@@@@@@@@@@@@@@@@@@@@@@@@@@@@@@@@@@@@@@@@@@@@@@@@@@@@@@@@@@@@@@@@@@@@@@@@@@@@@@@@@@@@@@@@@@@@@@@@@@@@@@@@",
"++++++++++++++++++++++++++++++++++++++++++++++++++++++++++++++++++++++++++++++++++++++++++++++++++++++++++++++++++++++++++++++++",
"++@.+.......++....+.+........+..++.+++@+.......++..+.++........@.....++.++.+..@.@...+..@.+.++.+.+..++.++.........+.....+..+++..+",
"++...+...+.....++..........................+.....@..............@..........@.....+................@@@@...+......+.@....@+.....+.",
"+.@...+............+.+.+............................@....+.+.@...+.........@................@@...@..@...@......++.+....+....+.++",
"++...+.............@......@.......+...+.++.+...............++.+......+.........@@...+...+.++...@........@........++...+++.+.+++.",
"++....+............+...........+...++....++...@......+@..+........@@..@.+.......@.....+................+.+..+...++@.........+++.",
"+.+...+........@@...++..............+@..++.................+..+@+.@@.@....@++.@.+.+.++....+.@.@....@..+.........++...........++.",
"+...++.+....@..........@..++.....+++..++++...........+.....+...+...........+++++@+....+.+.........+.+.+....+.....++@++..+...+.+.",
".....++.++.+..@.@...+..@.+.++.+.+..++.++.........+.....+..+++..+++@.+.......++....+.+........+..++.+++@+.......++..+.++........@",
"@..........@.....+................@@@@...+......+.@....@+.....+.++...+...+.....++..........................+.....@..............",
".+.........@................@@...@..@...@......++.+....+....+.+++.@...+............+.+.+............................@....+.+.@..",
".....+.........@@...+...+.++...@........@........++...+++.+.+++.++...+.............@......@.......+...+.++.+...............++.+.",
"..@@..@.+.......@.....+................+.+..+...++@.........+++.++....+............+...........+...++....++...@......+@..+......",
"+.@@.@....@++.@.+.+.++....+.@.@....@..+.........++...........++.+.+...+........@@...++..............+@..++.................+..+@",
"...........+++++@+....+.+.........+.+.+....+.....++@++..+...+.+.+...++.+....@..........@..++.....+++..++++...........+.....+...+",
"$$$$$$$$$$$$$$$$$$$$$$$$$$$$$$$$$$$$$$$$$$$$$$$$$$$$$$$$$$$$$$$$$$$$$$$$$$$$$$$$$$$$$$$$$$$$$$$$$$$$$$$$$$$$$$$$$$$$$$$$$$$$$$$$",
"################################################################################################################################"};
