/* XPM */
static char * title_left_xpm[] = {
"2 20 4 1",
"f c #FFFFFF",
"- c #DCDCDC",
"/ c #C3C3C3",
"o c #000000",
"ff",
"f-",
"f-",
"f-",
"f-",
"f-",
"f-",
"f-",
"f-",
"f-",
"f-",
"f-",
"f-",
"f-",
"f-",
"f-",
"f-",
"f-",
"f/",
"/o"};

