/* XPM */
static char * title_inactive_left_xpm[] = {
"2 18 5 1",
" 	c None",
".	c #FFFFFF",
"+	c #DCDCDC",
"@	c #C3C3C3",
"#	c #808080",
"..",
".+",
".+",
".+",
".+",
".+",
".+",
".+",
".+",
".+",
".+",
".+",
".+",
".+",
".+",
".+",
".@",
"@#"};
