/* XPM */
static char * title_right_xpm[] = {
"2 20 4 1",
"f c #FFFFFF",
"/ c #C3C3C3",
". c #585858",
"o c #000000",
"f/",
"/o",
".o",
".o",
".o",
".o",
".o",
".o",
".o",
".o",
".o",
".o",
".o",
".o",
".o",
".o",
".o",
".o",
".o",
"oo"};


