/* XPM */
static char * title_active_right_xpm[] = {
"2 18 7 1",
" 	c None",
".	c #DCDCDC",
"+	c #C3C3C3",
"@	c #808080",
"#	c #585858",
"$	c #303030",
"%	c #000000",
".+",
"@#",
"#$",
"#$",
"#$",
"#$",
"#$",
"#$",
"#$",
"#$",
"#$",
"#$",
"#$",
"#$",
"#$",
"#$",
"#$",
"$%"};
