/* XPM */
static char * unmax_xpm[] = {
"12 12 7 1",
" 	c None",
".	c #5A5A5A",
"+	c #7B7B7B",
"@	c #BDBDBD",
"#	c #FFFFFF",
"$	c #DEDEDE",
"%	c #9C9C9C",
"..........+@",
".#########@$",
".#        +#",
".#        .#",
".#        .#",
".#        .#",
".#        .#",
".#        .#",
".#        .#",
".#        .#",
".@+........#",
"%$##########"};
