/* XPM */
static char * unmax_xpm[] = {
"12 12 5 1",
" 	c None",
".	c #FFFFFF",
"+	c #585858",
"@	c #808080",
"#	c #DCDCDC",
"@++++++++++@",
"+#........#+",
"+..........+",
"+..........+",
"+..........+",
"+..........+",
"+..........+",
"+..........+",
"+..........+",
"+..........+",
"+#........#+",
"@++++++++++@"};
