/* XPM */
static const char * help_xpm[] = {
"32 32 2 1",
" 	c None",
".	c #0000FF",
"                                ",
"          ..........            ",
"       ...............          ",
"      ..................        ",
"      ......     ........       ",
"      .....       .......       ",
"      ....         .......      ",
"      ....         .......      ",
"      ...          .......      ",
"                   .......      ",
"                   .......      ",
"                   .......      ",
"                  .......       ",
"                 ........       ",
"                ........        ",
"              .........         ",
"             .........          ",
"            .......             ",
"            .....               ",
"            .....               ",
"            .....               ",
"             ...                ",
"                                ",
"                                ",
"             ...                ",
"            .....               ",
"           .......              ",
"           .......              ",
"           .......              ",
"            .....               ",
"             ...                ",
"                                "};
