/* XPM */
static const char * sticky_xpm[] = {
"32 32 2 1",
" 	c None",
".	c #0000FF",
"                                ",
"            ........            ",
"         ..............         ",
"        ................        ",
"      ....................      ",
"     ........      ........     ",
"    ......            ......    ",
"    .....              .....    ",
"   .....                .....   ",
"  .....                  .....  ",
"  ....                    ....  ",
"  ....                    ....  ",
" .....                    ..... ",
" ....                      .... ",
" ....                      .... ",
" ....                      .... ",
" ....                      .... ",
" ....                      .... ",
" ....                      .... ",
" .....                    ..... ",
"  ....                    ....  ",
"  ....                    ....  ",
"  .....                  .....  ",
"   .....                .....   ",
"    .....              .....    ",
"    ......            ......    ",
"     ........      ........     ",
"      ....................      ",
"        ................        ",
"         ..............         ",
"            ........            ",
"                                "};
